<svg height="512" viewBox="0 0 60 60" width="512" xmlns="http://www.w3.org/2000/svg"><g id="Page-1" fill="none" fill-rule="evenodd"><g id="038---Market-Stall" fill-rule="nonzero"><path id="Shape" d="m24 12v1c0 2.209139-1.790861 4-4 4h-4c-2.209139 0-4-1.790861-4-4v-1z" fill="#f5f5f5"/><path id="Shape" d="m36 12v1c0 2.209139-1.790861 4-4 4h-4c-2.209139 0-4-1.790861-4-4v-1z" fill="#f44335"/><path id="Shape" d="m58.84 12h-57.68c.08262847-.2979072.21080843-.5812523.38-.84l5-7.84c.91325489-1.43844068 2.49615309-2.31280349 4.2-2.32h38.52c1.7074031.00378967 3.2948339.87857335 4.21 2.32l5 7.84c.1656911.2593632.2904847.5426785.37.84z" fill="#f44335"/><path id="Shape" d="m58.46 11.16-5-7.84c-.9132549-1.43844068-2.4961531-2.31280349-4.2-2.32h-3c1.7074031.00378967 3.2948339.87857335 4.21 2.32l5 7.84c.1691916.2587477.2973715.5420928.38.84h3c-.0857368-.298499-.2173042-.5818748-.39-.84z" fill="#c81e1e"/><path id="Shape" d="m12 12v1c0 2.209139-1.790861 4-4 4h-3c-.33773489.0030147-.67426164-.0407338-1-.13-.68632691-.1691791-1.31692571-.5137686-1.83-1-.75984013-.760562-1.18153465-1.7949751-1.17-2.87-.0022082-.3398782.0518558-.6777782.16-1z" fill="#f44335"/><path id="Shape" d="m59 13c.0008345 1.0611852-.4200457 2.0792116-1.17 2.83-.5130743.4862314-1.1436731.8308209-1.83 1-.3238271.1028066-.6603919.1600226-1 .17h-3c-2.209139 0-4-1.790861-4-4v-1h10.84c.1081442.3222218.1622082.6601218.16 1z" fill="#f44335"/><path id="Shape" d="m58.84 12h-3c.1081442.3222218.1622082.6601218.16 1 .0008345 1.0611852-.4200457 2.0792116-1.17 2.83-.5130743.4862314-1.1436731.8308209-1.83 1-.3238271.1028066-.6603919.1600226-1 .17h3c.3377349.0030147.6742616-.0407338 1-.13.6863269-.1691791 1.3169257-.5137686 1.83-1 .7598401-.760562 1.1815346-1.7949751 1.17-2.87.0022082-.3398782-.0518558-.6777782-.16-1z" fill="#c81e1e"/><path id="Shape" d="m48 12v1c0 2.209139-1.790861 4-4 4h-4c-2.209139 0-4-1.790861-4-4v-1z" fill="#f5f5f5"/><rect id="Rectangle-path" fill="#91562d" height="4" rx="2" width="58" x="1" y="39"/><path id="Shape" d="m57 39h-3c1.1045695 0 2 .8954305 2 2s-.8954305 2-2 2h3c1.1045695 0 2-.8954305 2-2s-.8954305-2-2-2z" fill="#6d4122"/><path id="Rectangle-path" d="m3 43h54v12h-54z" fill="#ffdc00"/><path id="Rectangle-path" d="m54 43h3v12h-3z" fill="#fec108"/><path id="Shape" d="m8 17v22h-4v-22.13c.32573836.0892662.66226511.1330147 1 .13z" fill="#7f8e94"/><path id="Shape" d="m56 16.87v22.13h-4v-22h3c.3377349.0030147.6742616-.0407338 1-.13z" fill="#7f8e94"/><path id="Shape" d="m13 33h18c.5522847 0 1 .4477153 1 1v5h-20v-5c0-.5522847.4477153-1 1-1z" fill="#607d8b"/><rect id="Rectangle-path" fill="#a4c400" height="4" rx="1" width="10" x="12" y="23"/><path id="Rectangle-path" d="m15 27h4v6h-4z" fill="#7f8e94"/><path id="Shape" d="m41 31 1 8h2 2l1-8z" fill="#02a9f4"/><rect id="Rectangle-path" fill="#91562d" height="4" rx="2" width="58" x="1" y="55"/><path id="Shape" d="m57 55h-3c1.1045695 0 2 .8954305 2 2s-.8954305 2-2 2h3c1.1045695 0 2-.8954305 2-2s-.8954305-2-2-2z" fill="#6d4122"/><path id="Shape" d="m58.54 16.53c.9346895-.9370554 1.4597188-2.2064755 1.46-3.53-.0007879-.8439713-.2437353-1.6699925-.7-2.38l-5-7.83c-1.0944841-1.72842193-2.9942143-2.78005832-5.04-2.79h-38.52c-2.0295984.02130392-3.910834 1.06727091-5 2.78l-5 7.84c-.47038203.7056759-.72731132 1.5320161-.74 2.38.00028143 1.3284254.52919338 2.6021317 1.47 3.54.44216353.4271002.96134376.7664337 1.53 1v20.46c-1.45200487.0112653-2.687509 1.0608126-2.93339863 2.4918903-.24588964 1.4310777.56842927 2.8328283 1.93339863 3.3281097v10.36c-1.36496936.4952814-2.17928827 1.897032-1.93339863 3.3281097.24588963 1.4310777 1.48139376 2.480625 2.93339863 2.4918903h54c1.4520049-.0112653 2.687509-1.0608126 2.9333986-2.4918903.2458897-1.4310777-.5684292-2.8328283-1.9333986-3.3281097v-10.36c1.3649694-.4952814 2.1792883-1.897032 1.9333986-3.3281097-.2458896-1.4310777-1.4813937-2.480625-2.9333986-2.4918903v-20.43c.5746179-.2459116 1.0972335-.5988468 1.54-1.04zm-1.41-1.41c-.5645172.565225-1.3311539.8819575-2.13.88h-3c-1.6568542 0-3-1.3431458-3-3h9.0000091c.0019456.7939488-.3109049 1.5562971-.8700091 2.12zm-10 22.88.87-6.88c.0345584-.282299-.0527214-.5659585-.24-.78-.1918663-.21842-.4692878-.3425296-.76-.34h-6c-.2872272.0003637-.5604302.1242157-.75.34-.1872786.2140415-.2745584.497701-.24.78l.86 6.88h-7.87v-4c0-1.1045695-.8954305-2-2-2h-11v-4h1c1.1045695 0 2-.8954305 2-2v-2c0-1.1045695-.8954305-2-2-2h-8c-1.1045695 0-2 .8954305-2 2v2c0 1.1045695.8954305 2 2 2h1v4h-1c-1.1045695 0-2 .8954305-2 2v4h-2v-20.1c1.1987913-.2449326 2.2661605-.920933 3-1.9.9442719 1.2590292 2.4262135 2 4 2h4c1.5737865 0 3.0557281-.7409708 4-2 .9442719 1.2590292 2.4262135 2 4 2h4c1.5737865 0 3.0557281-.7409708 4-2 .9442719 1.2590292 2.4262135 2 4 2h4c1.5737865 0 3.0557281-.7409708 4-2 .7286915.9903045 1.7967177 1.6774014 3 1.93v20.07zm-5-6h3.74l-.75 6h-2.24zm-23.13-6h-6v-2h8v2zm-3 2h2v4h-2zm-1 6h16v4h-18v-4zm32-21c0 1.6568542-1.3431458 3-3 3h-4c-1.6568542 0-3-1.3431458-3-3zm-12 0c0 1.6568542-1.3431458 3-3 3h-4c-1.6568542 0-3-1.3431458-3-3zm-22 0h10c0 1.6568542-1.3431458 3-3 3h-4c-1.6568542 0-3-1.3431458-3-3zm-5.62-9.15c.73202319-1.14845998 1.99809013-1.84555041 3.36-1.85h38.52c1.3674143.00321865 2.6384351.70473164 3.37 1.86l4.54 7.14h-8.49l-1.75-4.37c-.1321883-.33225702-.4315923-.56875356-.7854294-.62040367s-.7083512.0893931-.93.37000001c-.2216489.28060691-.2767589.65814666-.1445706.99040366l1.45 3.63h-9.52v-2c0-.55228475-.4477153-1-1-1s-1 .44771525-1 1v2h-10v-2c0-.55228475-.4477153-1-1-1s-1 .44771525-1 1v2h-9.52l1.45-3.63c.2043454-.51362482-.0463752-1.09565464-.56-1.3s-1.0956546.04637518-1.3.56l-1.75 4.37h-8.49zm-5.38 9.15h9c0 1.6568542-1.34314575 3-3 3h-3c-1.65685425 0-3-1.3431458-3-3zm3 5h2v20h-2zm51 36h-52v-10h52zm1 4h-54c-.55228475 0-1-.4477153-1-1s.44771525-1 1-1h54c.5522847 0 1 .4477153 1 1s-.4477153 1-1 1zm1-17c0 .5522847-.4477153 1-1 1h-54c-.55228475 0-1-.4477153-1-1s.44771525-1 1-1h54c.5522847 0 1 .4477153 1 1zm-3-3h-2v-20h2z" fill="#000"/></g></g></svg>